<svg width="29" height="29" viewBox="0 0 29 29" fill="none" xmlns="http://www.w3.org/2000/svg">
<path d="M3.60318 21.5V14.5C3.60318 11.7152 4.70943 9.04451 6.67856 7.07538C8.64769 5.10625 11.3184 4 14.1032 4C16.888 4 19.5587 5.10625 21.5278 7.07538C23.4969 9.04451 24.6032 11.7152 24.6032 14.5V21.5" stroke="#777777" stroke-width="2.66667" stroke-linecap="round" stroke-linejoin="round"/>
<path d="M24.6032 22.6666C24.6032 23.2855 24.3573 23.879 23.9198 24.3166C23.4822 24.7541 22.8887 25 22.2698 25H21.1032C20.4843 25 19.8908 24.7541 19.4533 24.3166C19.0157 23.879 18.7698 23.2855 18.7698 22.6666V19.1666C18.7698 18.5478 19.0157 17.9543 19.4533 17.5167C19.8908 17.0791 20.4843 16.8333 21.1032 16.8333H24.6032V22.6666ZM3.60318 22.6666C3.60318 23.2855 3.84901 23.879 4.2866 24.3166C4.72418 24.7541 5.31767 25 5.93651 25H7.10318C7.72202 25 8.31551 24.7541 8.7531 24.3166C9.19068 23.879 9.43651 23.2855 9.43651 22.6666V19.1666C9.43651 18.5478 9.19068 17.9543 8.7531 17.5167C8.31551 17.0791 7.72202 16.8333 7.10318 16.8333H3.60318V22.6666Z" stroke="#777777" stroke-width="2.66667" stroke-linecap="round" stroke-linejoin="round"/>
</svg>
