<svg width="29" height="29" viewBox="0 0 29 29" fill="none" xmlns="http://www.w3.org/2000/svg">
<path d="M4 21.5V14.5C4 11.7152 5.10625 9.04451 7.07538 7.07538C9.04451 5.10625 11.7152 4 14.5 4C17.2848 4 19.9555 5.10625 21.9246 7.07538C23.8938 9.04451 25 11.7152 25 14.5V21.5" stroke="#777777" stroke-width="2.66667" stroke-linecap="round" stroke-linejoin="round"/>
<path d="M25 22.6666C25 23.2855 24.7542 23.879 24.3166 24.3166C23.879 24.7541 23.2855 25 22.6667 25H21.5C20.8812 25 20.2877 24.7541 19.8501 24.3166C19.4125 23.879 19.1667 23.2855 19.1667 22.6666V19.1666C19.1667 18.5478 19.4125 17.9543 19.8501 17.5167C20.2877 17.0791 20.8812 16.8333 21.5 16.8333H25V22.6666ZM4 22.6666C4 23.2855 4.24583 23.879 4.68342 24.3166C5.121 24.7541 5.71449 25 6.33333 25H7.5C8.11884 25 8.71233 24.7541 9.14992 24.3166C9.5875 23.879 9.83333 23.2855 9.83333 22.6666V19.1666C9.83333 18.5478 9.5875 17.9543 9.14992 17.5167C8.71233 17.0791 8.11884 16.8333 7.5 16.8333H4V22.6666Z" stroke="#777777" stroke-width="2.66667" stroke-linecap="round" stroke-linejoin="round"/>
</svg>
