<svg width="17" height="16" viewBox="0 0 17 16" fill="none" xmlns="http://www.w3.org/2000/svg">
<path d="M9.84844 4.24725C10.5094 4.3676 11.1168 4.6693 11.5929 5.11373C12.069 5.55816 12.3923 6.1251 12.5212 6.74198M9.84844 1.72093C11.2216 1.86331 12.502 2.43725 13.4795 3.34852C14.4571 4.25978 15.0736 5.4542 15.2278 6.73567M14.5512 11.7757V13.6704C14.5519 13.8463 14.5133 14.0204 14.4378 14.1816C14.3624 14.3427 14.2516 14.4874 14.1128 14.6063C13.9739 14.7252 13.81 14.8158 13.6314 14.8721C13.4529 14.9285 13.2638 14.9494 13.0761 14.9336C10.9939 14.7224 8.99383 14.0583 7.23656 12.9946C5.60165 12.0249 4.21553 10.7311 3.17664 9.20514C2.03308 7.55748 1.32143 5.68156 1.09932 3.72935C1.08241 3.5547 1.10465 3.37868 1.16462 3.21248C1.22458 3.04629 1.32097 2.89358 1.44764 2.76406C1.5743 2.63454 1.72847 2.53106 1.90033 2.46021C2.07219 2.38935 2.25798 2.35268 2.44586 2.35251H4.47582C4.8042 2.34949 5.12256 2.45803 5.37154 2.6579C5.62053 2.85777 5.78316 3.13532 5.82912 3.43883C5.9148 4.04518 6.0737 4.64055 6.30278 5.21356C6.39382 5.43962 6.41352 5.6853 6.35956 5.92149C6.30559 6.15768 6.18021 6.37448 5.99829 6.5462L5.13894 7.3483C6.10219 8.92949 7.50482 10.2387 9.19886 11.1378L10.0582 10.3357C10.2422 10.1659 10.4745 10.0488 10.7275 9.99846C10.9805 9.94809 11.2438 9.96648 11.4859 10.0515C12.0999 10.2653 12.7377 10.4136 13.3873 10.4936C13.716 10.5368 14.0162 10.6914 14.2308 10.9278C14.4454 11.1642 14.5594 11.4659 14.5512 11.7757Z" stroke="white" stroke-width="1.6093" stroke-linecap="round" stroke-linejoin="round"/>
<path d="M9.84844 4.24725C10.5094 4.3676 11.1168 4.6693 11.5929 5.11373C12.069 5.55816 12.3923 6.1251 12.5212 6.74198M9.84844 1.72093C11.2216 1.86331 12.502 2.43725 13.4795 3.34852C14.4571 4.25978 15.0736 5.4542 15.2278 6.73567M14.5512 11.7757V13.6704C14.5519 13.8463 14.5133 14.0204 14.4378 14.1816C14.3624 14.3427 14.2516 14.4874 14.1128 14.6063C13.9739 14.7252 13.81 14.8158 13.6314 14.8721C13.4529 14.9285 13.2638 14.9494 13.0761 14.9336C10.9939 14.7224 8.99383 14.0583 7.23656 12.9946C5.60165 12.0249 4.21553 10.7311 3.17664 9.20514C2.03308 7.55748 1.32143 5.68156 1.09932 3.72935C1.08241 3.5547 1.10465 3.37868 1.16462 3.21248C1.22458 3.04629 1.32097 2.89358 1.44764 2.76406C1.5743 2.63454 1.72847 2.53106 1.90033 2.46021C2.07219 2.38935 2.25798 2.35268 2.44586 2.35251H4.47582C4.8042 2.34949 5.12256 2.45803 5.37154 2.6579C5.62053 2.85777 5.78316 3.13532 5.82912 3.43883C5.9148 4.04518 6.0737 4.64055 6.30278 5.21356C6.39382 5.43962 6.41352 5.6853 6.35956 5.92149C6.30559 6.15768 6.18021 6.37448 5.99829 6.5462L5.13894 7.3483C6.10219 8.92949 7.50482 10.2387 9.19886 11.1378L10.0582 10.3357C10.2422 10.1659 10.4745 10.0488 10.7275 9.99846C10.9805 9.94809 11.2438 9.96648 11.4859 10.0515C12.0999 10.2653 12.7377 10.4136 13.3873 10.4936C13.716 10.5368 14.0162 10.6914 14.2308 10.9278C14.4454 11.1642 14.5594 11.4659 14.5512 11.7757Z" stroke="black" stroke-opacity="0.1" stroke-width="1.6093" stroke-linecap="round" stroke-linejoin="round"/>
</svg>
