<svg width="18" height="17" viewBox="0 0 18 17" fill="none" xmlns="http://www.w3.org/2000/svg">
<path d="M10.7274 3.90943C11.409 4.04383 12.0355 4.38073 12.5266 4.87701C13.0177 5.37329 13.3511 6.00637 13.4841 6.69522M10.7274 1.08838C12.1436 1.24737 13.4643 1.88827 14.4725 2.90585C15.4808 3.92342 16.1167 5.2572 16.2758 6.68817M15.5779 12.3162V14.432C15.5787 14.6284 15.5389 14.8228 15.461 15.0028C15.3831 15.1827 15.2689 15.3443 15.1257 15.4771C14.9825 15.6098 14.8134 15.7109 14.6292 15.7739C14.4451 15.8368 14.25 15.8602 14.0564 15.8425C11.9088 15.6067 9.84589 14.8651 8.0334 13.6773C6.34711 12.5945 4.91744 11.1498 3.8459 9.44575C2.66641 7.60586 1.93238 5.51108 1.7033 3.33112C1.68586 3.13609 1.70879 2.93953 1.77065 2.75395C1.8325 2.56837 1.93191 2.39783 2.06256 2.25321C2.19321 2.10858 2.35222 1.99303 2.52948 1.9139C2.70675 1.83478 2.89837 1.79383 3.09215 1.79364H5.1859C5.5246 1.79027 5.85296 1.91148 6.10978 2.13466C6.36659 2.35784 6.53433 2.66778 6.58173 3.00669C6.67011 3.68379 6.834 4.34862 7.07028 4.98848C7.16418 5.24091 7.1845 5.51526 7.12884 5.779C7.07317 6.04274 6.94386 6.28484 6.75621 6.47659L5.86986 7.37227C6.86338 9.13793 8.31009 10.5999 10.0574 11.6039L10.9437 10.7082C11.1335 10.5185 11.373 10.3879 11.634 10.3316C11.895 10.2754 12.1665 10.2959 12.4163 10.3908C13.0495 10.6296 13.7074 10.7952 14.3775 10.8845C14.7165 10.9328 15.0261 11.1054 15.2474 11.3693C15.4688 11.6333 15.5864 11.9703 15.5779 12.3162Z" stroke="white" stroke-width="1.86977" stroke-linecap="round" stroke-linejoin="round"/>
<path d="M10.7274 3.90943C11.409 4.04383 12.0355 4.38073 12.5266 4.87701C13.0177 5.37329 13.3511 6.00637 13.4841 6.69522M10.7274 1.08838C12.1436 1.24737 13.4643 1.88827 14.4725 2.90585C15.4808 3.92342 16.1167 5.2572 16.2758 6.68817M15.5779 12.3162V14.432C15.5787 14.6284 15.5389 14.8228 15.461 15.0028C15.3831 15.1827 15.2689 15.3443 15.1257 15.4771C14.9825 15.6098 14.8134 15.7109 14.6292 15.7739C14.4451 15.8368 14.25 15.8602 14.0564 15.8425C11.9088 15.6067 9.84589 14.8651 8.0334 13.6773C6.34711 12.5945 4.91744 11.1498 3.8459 9.44575C2.66641 7.60586 1.93238 5.51108 1.7033 3.33112C1.68586 3.13609 1.70879 2.93953 1.77065 2.75395C1.8325 2.56837 1.93191 2.39783 2.06256 2.25321C2.19321 2.10858 2.35222 1.99303 2.52948 1.9139C2.70675 1.83478 2.89837 1.79383 3.09215 1.79364H5.1859C5.5246 1.79027 5.85296 1.91148 6.10978 2.13466C6.36659 2.35784 6.53433 2.66778 6.58173 3.00669C6.67011 3.68379 6.834 4.34862 7.07028 4.98848C7.16418 5.24091 7.1845 5.51526 7.12884 5.779C7.07317 6.04274 6.94386 6.28484 6.75621 6.47659L5.86986 7.37227C6.86338 9.13793 8.31009 10.5999 10.0574 11.6039L10.9437 10.7082C11.1335 10.5185 11.373 10.3879 11.634 10.3316C11.895 10.2754 12.1665 10.2959 12.4163 10.3908C13.0495 10.6296 13.7074 10.7952 14.3775 10.8845C14.7165 10.9328 15.0261 11.1054 15.2474 11.3693C15.4688 11.6333 15.5864 11.9703 15.5779 12.3162Z" stroke="black" stroke-opacity="0.1" stroke-width="1.86977" stroke-linecap="round" stroke-linejoin="round"/>
</svg>
